<?xml version="1.0" encoding="utf-8"?>
<!-- Generator: Adobe Illustrator 25.4.1, SVG Export Plug-In . SVG Version: 6.00 Build 0)  -->
<svg version="1.1" id="Layer_1" xmlns="http://www.w3.org/2000/svg" xmlns:xlink="http://www.w3.org/1999/xlink" x="0px" y="0px"
	 viewBox="0 0 60 60" style="enable-background:new 0 0 60 60;" xml:space="preserve">
<style type="text/css">
	.st0{fill:#12100B;}
	.st1{fill:none;stroke:#12100B;stroke-width:3;stroke-linejoin:round;stroke-miterlimit:10;}
	.st2{fill:none;stroke:#12100B;stroke-width:2;stroke-miterlimit:10;}
</style>
<g>
	<path class="st0" d="M28.97,20.26c0.57,0.57,1.5,0.57,2.07,0c0.57-0.57,0.57-1.5,0-2.07c-0.57-0.57-1.5-0.57-2.07,0
		C28.39,18.76,28.39,19.69,28.97,20.26z"/>
	<path class="st1" d="M34.38,16.06c-2.42-2.42-6.34-2.42-8.76,0"/>
	<path class="st1" d="M40.66,9.79c-5.88-5.88-15.43-5.88-21.31,0"/>
	<path class="st1" d="M37.57,12.87c-4.18-4.18-10.96-4.18-15.14,0"/>
	<path class="st1" d="M26.89,54.07c-0.99,0.18-4.48,0.76-5.55,0.48c-2.14-0.57-2.01-2.34-2.26-4.2c-0.11-0.79-0.22-1.82-0.3-2.66
		c-3.93-0.15-4.4-1.57-3.72-3.36c0.62-1.65,1.53-3.6,2.28-5.2"/>
	<polyline class="st2" points="26.63,40.01 29.49,37.31 33.13,41.06 36.22,38.11 	"/>
	<path class="st1" d="M42.73,46.89c1.55-2.22,2.47-4.92,2.47-7.84c0-7.6-6.16-14.06-13.77-14.06c-6.75,0-13.54,3.95-13.54,10.98"/>
	<path class="st0" d="M38.89,35.44c-0.89-0.89-2.44-0.89-3.33,0c-0.45,0.44-0.69,1.04-0.69,1.67c0,0.63,0.24,1.22,0.69,1.67
		c0.45,0.45,1.04,0.69,1.67,0.69c0,0,0,0,0,0c0.63,0,1.22-0.25,1.67-0.69C39.81,37.85,39.81,36.36,38.89,35.44z"/>
	<path class="st0" d="M27.3,39.35c-0.89-0.89-2.44-0.89-3.34,0c-0.92,0.92-0.92,2.42,0,3.33c0.46,0.46,1.06,0.69,1.67,0.69
		c0.6,0,1.21-0.23,1.67-0.69c0.45-0.45,0.69-1.04,0.69-1.67C27.99,40.38,27.74,39.79,27.3,39.35z"/>
</g>
</svg>
