<?xml version="1.0" encoding="utf-8"?>
<!-- Generator: Adobe Illustrator 26.5.0, SVG Export Plug-In . SVG Version: 6.00 Build 0)  -->
<svg version="1.1" id="Layer_1" xmlns="http://www.w3.org/2000/svg" xmlns:xlink="http://www.w3.org/1999/xlink" x="0px" y="0px"
	 viewBox="0 0 60 60" style="enable-background:new 0 0 60 60;" xml:space="preserve">
<style type="text/css">
	.st0{fill:none;stroke:#000000;stroke-width:3;stroke-miterlimit:10;}
	.st1{fill:none;stroke:#000000;stroke-width:2;stroke-linecap:round;stroke-miterlimit:10;}
	.st2{opacity:0.5;fill:none;stroke:#000000;stroke-width:3;stroke-miterlimit:10;enable-background:new    ;}
</style>
<g>
	<g>
		<g>
			<g>
				<g>
					<g>
						<path class="st0" d="M32.6,34.3V23.1c0-1.5-1.2-2.8-2.8-2.8H14.4c-1.5,0-2.8,1.2-2.8,2.8v16c0,1.5,0,2.8,0,2.8s0,1.3,0,2.8
							v9.1c0,1.5,1.2,2.8,2.8,2.8h15.5"/>
					</g>
				</g>
			</g>
			<g>
				<line class="st1" x1="19.6" y1="24.8" x2="24.7" y2="24.8"/>
			</g>
		</g>
		<g>
			<g>
				<g>
					<g>
						<path class="st0" d="M12.5,14.6c5.3-5.1,14-5.1,19.3,0"/>
						<path class="st0" d="M7.2,9.6c8.2-8.4,21.6-8.4,29.9,0"/>
					</g>
				</g>
			</g>
		</g>
	</g>
	<g>
		<path class="st2" d="M35.8,30.2"/>
		<path class="st0" d="M42.9,23.1c1.9,2,1.8,5.4,1.8,5.4s-3.4,0.2-5.4-1.8c-1.9-2-1.8-5.4-1.8-5.4S40.9,21.1,42.9,23.1z"/>
		<path class="st0" d="M50.1,26.8c-1.9,2-5.4,1.8-5.4,1.8s-0.2-3.5,1.8-5.4s5.4-1.8,5.4-1.8S52.1,24.8,50.1,26.8z"/>
		<line class="st0" x1="44.7" y1="28.4" x2="44.7" y2="34.8"/>
	</g>
	<g>
		<path d="M37.8,48.7h-5.6l-1.1,3.4h-2.6l5.1-14.8h2.7l5.1,14.8h-2.6L37.8,48.7z M37.1,46.5L35,39.7l-2.1,6.8H37.1z"/>
		<path d="M43.6,37.3H46v14.8h-2.5V37.3z"/>
	</g>
</g>
</svg>
