<?xml version="1.0" encoding="utf-8"?>
<!-- Generator: Adobe Illustrator 25.4.1, SVG Export Plug-In . SVG Version: 6.00 Build 0)  -->
<svg version="1.1" id="Layer_1" xmlns="http://www.w3.org/2000/svg" xmlns:xlink="http://www.w3.org/1999/xlink" x="0px" y="0px"
	 viewBox="0 0 60 60" style="enable-background:new 0 0 60 60;" xml:space="preserve">
<style type="text/css">
	.st0{opacity:0.5;fill:none;stroke:#E6007E;stroke-width:3;stroke-linejoin:round;stroke-miterlimit:10;}
	.st1{fill:none;stroke:#000000;stroke-width:3;stroke-linecap:round;stroke-linejoin:round;stroke-miterlimit:10;}
	.st2{fill:none;stroke:#000000;stroke-width:3;stroke-miterlimit:10;}
</style>
<g>
	<path class="st0" d="M29.54,45.9"/>
	<path class="st1" d="M50.12,36.45c3.06,0,5.53,2.45,5.53,5.48c0,3.02-2.47,5.48-5.53,5.48c-3.05,0-5.52-2.46-5.52-5.48
		C44.6,38.9,47.08,36.45,50.12,36.45z"/>
	<g>
		<path class="st1" d="M36.89,33.07c0-2.45,1.97-4.45,4.4-4.45"/>
		<path class="st2" d="M50.7,33.46c0-0.11,0.01-0.22,0.01-0.33c0-5.19-4.21-9.41-9.41-9.41c-5.19,0-9.41,4.21-9.41,9.41
			c0,5.19,4.2,9.39,9.38,9.41"/>
	</g>
	<path class="st1" d="M39.46,47.09c1.77,0,3.21,1.43,3.21,3.19c0,1.77-1.44,3.2-3.21,3.2c-1.77,0-3.21-1.43-3.21-3.2
		C36.25,48.52,37.68,47.09,39.46,47.09"/>
	<g>
		<path d="M56.7,4.93H40.07c-0.62,0-1.18,0.39-1.4,0.97c-1.16,3.08-3.95,5.07-7.12,5.07c-3.16,0-5.96-1.99-7.11-5.07
			c-0.22-0.59-0.78-0.97-1.4-0.97H6.41c-0.83,0-1.5,0.67-1.5,1.5v13.61c0,0.83,0.67,1.5,1.5,1.5h6.82
			c-0.68,3.04-3.02,9.89-10.81,15.79c-0.51,0.39-0.72,1.05-0.52,1.66c0.2,0.61,0.76,1.02,1.39,1.04c0.1,0,9.87,0.23,16.2,2.27
			c2.62,0.84,3.86,1.46,4.95,2.01c1.65,0.82,2.97,1.48,7.45,2.21v-3.04c-3.63-0.62-4.64-1.12-6.11-1.85
			c-1.13-0.56-2.54-1.27-5.37-2.18c-4.2-1.35-9.62-1.95-13.21-2.21c8.64-8.07,9.27-16.69,9.29-17.09c0.03-0.41-0.12-0.82-0.4-1.12
			c-0.28-0.3-0.68-0.47-1.09-0.47H7.91V7.93h14.14c1.8,3.7,5.42,6.04,9.5,6.04c4.08,0,7.71-2.34,9.51-6.04H55.2v10.61h-7.09v3h8.59
			c0.83,0,1.5-0.67,1.5-1.5V6.43C58.2,5.6,57.53,4.93,56.7,4.93z"/>
	</g>
</g>
</svg>
