<?xml version="1.0" encoding="UTF-8"?>
<svg id="Layer_1" xmlns="http://www.w3.org/2000/svg" version="1.1" xmlns:xlink="http://www.w3.org/1999/xlink" viewBox="0 0 60 60">
  <!-- Generator: Adobe Illustrator 29.2.1, SVG Export Plug-In . SVG Version: 2.1.0 Build 116)  -->
  <defs>
    <style>
      .st0, .st1 {
        fill: none;
      }

      .st2 {
        clip-path: url(#clippath-1);
      }

      .st3 {
        fill: #040404;
      }

      .st4 {
        clip-path: url(#clippath);
      }

      .st1 {
        stroke: #040404;
        stroke-linejoin: round;
        stroke-width: 3.3px;
      }
    </style>
    <clipPath id="clippath">
      <rect class="st0" x=".48" y=".46" width="59.05" height="59.05"/>
    </clipPath>
    <clipPath id="clippath-1">
      <rect class="st0" x=".48" y="8.78" width="59.05" height="42.41"/>
    </clipPath>
  </defs>
  <g class="st4">
    <g id="_마스크_그룹_2" data-name="마스크_그룹_2">
      <g class="st2">
        <g id="Smartthings_W">
          <g id="Group_38">
            <path id="Path_74" class="st3" d="M27.24,50.05c1.52,1.52,3.98,1.52,5.5,0,1.52-1.52,1.52-3.98,0-5.5-1.52-1.52-3.98-1.52-5.5,0-1.52,1.52-1.52,3.98,0,5.51h0"/>
            <path id="Path_75" class="st1" d="M41.66,38.88c-6.44-6.44-16.88-6.44-23.31,0,0,0,0,0,0,0h0"/>
            <path id="Path_76" class="st1" d="M58.36,22.17C42.69,6.52,17.31,6.52,1.64,22.17"/>
            <path id="Path_77" class="st1" d="M50.14,30.39c-11.13-11.12-29.16-11.12-40.29,0"/>
          </g>
        </g>
      </g>
    </g>
  </g>
</svg>