<?xml version="1.0" encoding="utf-8"?>
<!-- Generator: Adobe Illustrator 22.0.1, SVG Export Plug-In . SVG Version: 6.00 Build 0)  -->
<svg version="1.1" id="레이어_1" xmlns="http://www.w3.org/2000/svg" xmlns:xlink="http://www.w3.org/1999/xlink" x="0px"
	 y="0px" viewBox="0 0 60 60" style="enable-background:new 0 0 60 60;" xml:space="preserve">
<style type="text/css">
	.st0{fill:#110F0A;}
	.st1{fill:none;stroke:#110F0A;stroke-width:3;stroke-linejoin:round;stroke-miterlimit:10;}
</style>
<g>
	<g>
		<g>
			<path class="st0" d="M26,13.3L23.4,12v1c-2.3-0.3-4-0.8-4.9-1.3c1.4-1.1,5-2,9.4-2.3v-1c-5.8,0.3-10,1.3-10,2.5v1.9
				c0,1.2,2.2,2.2,5.6,2.8v0.9l1.4-0.7l3.3-1.6L26,13.3z"/>
			<path class="st0" d="M32.3,8.4c-0.5,0-0.9,0-1.4,0c-0.5,0-0.9,0-1.4,0v1c0.5,0,0.9,0,1.4,0c0.5,0,0.9,0,1.4,0V8.4z"/>
			<path class="st0" d="M34,8.4v1c4.4,0.3,8,1.2,9.4,2.3c-0.9,0.5-2.6,1-4.9,1.3v-1l-2.6,1.3l-2.1,1l3.3,1.6l1.4,0.7v-0.9
				C41.8,15,44,14,44,12.8v-1.9C44,9.7,39.7,8.7,34,8.4z"/>
		</g>
		<g>
			<path class="st0" d="M26,25l-2.6-1.3v1c-2.3-0.3-4-0.8-4.9-1.3c1.4-1.1,5-2,9.4-2.3v-1c-5.8,0.3-10,1.3-10,2.5v1.9
				c0,1.2,2.2,2.2,5.6,2.8v0.9l1.4-0.7l3.3-1.6L26,25z"/>
			<path class="st0" d="M32.3,20c-0.5,0-0.9,0-1.4,0c-0.5,0-0.9,0-1.4,0v1c0.5,0,0.9,0,1.4,0c0.5,0,0.9,0,1.4,0V20z"/>
			<path class="st0" d="M34,20.1v1c4.4,0.3,8,1.2,9.4,2.3c-0.9,0.5-2.6,1-4.9,1.3v-1L35.8,25l-2.1,1l3.3,1.6l1.4,0.7v-0.9
				c3.4-0.6,5.6-1.7,5.6-2.8v-1.9C44,21.4,39.7,20.4,34,20.1z"/>
		</g>
		<g>
			<path class="st0" d="M26,36.6l-2.6-1.3v1c-2.3-0.3-4-0.8-4.9-1.3c1.4-1.1,5-2,9.4-2.3v-1c-5.8,0.3-10,1.3-10,2.5v1.9
				c0,1.2,2.2,2.2,5.6,2.8v0.9l1.4-0.7l3.3-1.6L26,36.6z"/>
			<path class="st0" d="M32.3,31.7c-0.5,0-0.9,0-1.4,0c-0.5,0-0.9,0-1.4,0v1c0.5,0,0.9,0,1.4,0c0.5,0,0.9,0,1.4,0V31.7z"/>
			<path class="st0" d="M34,31.8v1c4.4,0.3,8,1.2,9.4,2.3c-0.9,0.5-2.6,1-4.9,1.3v-1l-2.6,1.3l-2.1,1l3.3,1.6l1.4,0.7V39
				c3.4-0.6,5.6-1.7,5.6-2.8v-1.9C44,33.1,39.7,32,34,31.8z"/>
		</g>
		<g>
			<path class="st0" d="M26,48.3L23.4,47v1c-2.3-0.3-4-0.8-4.9-1.3c1.4-1.1,5-2,9.4-2.3v-1c-5.8,0.3-10,1.3-10,2.5v1.9
				c0,1.2,2.2,2.2,5.6,2.8v0.9l1.4-0.7l3.3-1.6L26,48.3z"/>
			<path class="st0" d="M32.3,43.4c-0.5,0-0.9,0-1.4,0c-0.5,0-0.9,0-1.4,0v1c0.5,0,0.9,0,1.4,0c0.5,0,0.9,0,1.4,0V43.4z"/>
			<path class="st0" d="M34,43.4v1c4.4,0.3,8,1.2,9.4,2.3c-0.9,0.5-2.6,1-4.9,1.3v-1l-2.6,1.3l-2.1,1l3.3,1.6l1.4,0.7v-0.9
				C41.8,50,44,49,44,47.8v-1.9C44,44.7,39.7,43.7,34,43.4z"/>
		</g>
	</g>
	<rect x="12" y="3.3" class="st1" width="37.8" height="53.4"/>
</g>
</svg>
