<?xml version="1.0" encoding="utf-8"?>
<!-- Generator: Adobe Illustrator 22.0.1, SVG Export Plug-In . SVG Version: 6.00 Build 0)  -->
<svg version="1.1" id="레이어_1" xmlns="http://www.w3.org/2000/svg" xmlns:xlink="http://www.w3.org/1999/xlink" x="0px"
	 y="0px" viewBox="0 0 60 60" style="enable-background:new 0 0 60 60;" xml:space="preserve">
<style type="text/css">
	.st0{fill:none;stroke:#FFFFFF;stroke-width:3;stroke-miterlimit:10;}
	.st1{fill:none;stroke:#FFFFFF;stroke-width:3;stroke-linejoin:round;stroke-miterlimit:10;}
	.st2{fill:#FFFFFF;}
	.st3{fill:none;stroke:#FFFFFF;stroke-width:1.5;stroke-linejoin:round;stroke-miterlimit:10;}
</style>
<polyline class="st0" points="20.7,57.4 23.9,53.5 20.7,49.6 "/>
<polyline class="st1" points="23.9,53.5 13.8,53.5 13.8,34.7 47.1,34.7 47.1,53.5 27.2,53.5 "/>
<polyline class="st0" points="40.1,2.5 36.9,6.4 40.1,10.3 "/>
<polyline class="st1" points="36.9,6.4 47.1,6.4 47.1,29.7 13.8,29.7 13.8,6.4 33.6,6.4 "/>
<path class="st2" d="M26.6,18.2h2.6c0,0,0,0.1,0,0.1c-0.7,0.4-1.1,1-1.1,1.7c0,1.1,1,2,2.3,2c0.1,0,0.1-0.1,0.1-0.1v-2.6
	c0,0,0,0,0.1,0c0.4,0.7,1,1.1,1.7,1.1c1.1,0,2-1,2-2.3c0-0.1-0.1-0.1-0.1-0.1h-2.6c0,0,0,0,0-0.1c0.7-0.4,1.1-1,1.1-1.7
	c0-1.1-1-2-2.3-2c-0.1,0-0.1,0.1-0.1,0.1v2.6c0,0,0,0-0.1,0c-0.4-0.7-1-1.1-1.7-1.1c-1.1,0-2,1-2,2.3C26.4,18.1,26.5,18.2,26.6,18.2
	z M30,18.1L30,18.1c0-0.2,0.1-0.4,0.3-0.4h0c0.2,0,0.4,0.1,0.4,0.3c0,0,0,0,0,0c0,0.2-0.1,0.4-0.3,0.4h-0.1
	C30.2,18.4,30.1,18.3,30,18.1z"/>
<path class="st3" d="M24.8,18c0-3.1,2.5-5.6,5.6-5.6c3.1,0,5.6,2.5,5.6,5.6c0,3.1-2.5,5.6-5.6,5.6C27.3,23.6,24.8,21.1,24.8,18z"/>
<path class="st2" d="M26.6,44.2h2.6c0,0,0,0.1,0,0.1c-0.7,0.4-1.1,1-1.1,1.7c0,1.1,1,2,2.3,2c0.1,0,0.1-0.1,0.1-0.1v-2.6
	c0,0,0,0,0.1,0c0.4,0.7,1,1.1,1.7,1.1c1.1,0,2-1,2-2.3c0-0.1-0.1-0.1-0.1-0.1h-2.6c0,0,0,0,0-0.1c0.7-0.4,1.1-1,1.1-1.7
	c0-1.1-1-2-2.3-2c-0.1,0-0.1,0.1-0.1,0.1v2.6c0,0,0,0-0.1,0c-0.4-0.7-1-1.1-1.7-1.1c-1.1,0-2,1-2,2.3C26.4,44.2,26.5,44.2,26.6,44.2
	z M30,44.2L30,44.2c0-0.2,0.1-0.4,0.3-0.4h0c0.2,0,0.4,0.1,0.4,0.3c0,0,0,0,0,0c0,0.2-0.1,0.4-0.3,0.4h-0.1
	C30.2,44.5,30.1,44.3,30,44.2z"/>
<path class="st3" d="M24.8,44.1c0-3.1,2.5-5.6,5.6-5.6c3.1,0,5.6,2.5,5.6,5.6c0,3.1-2.5,5.6-5.6,5.6C27.3,49.7,24.8,47.2,24.8,44.1z
	"/>
</svg>
