<?xml version="1.0" encoding="utf-8"?>
<!-- Generator: Adobe Illustrator 28.1.0, SVG Export Plug-In . SVG Version: 6.00 Build 0)  -->
<svg version="1.1" id="Layer_1" xmlns="http://www.w3.org/2000/svg" xmlns:xlink="http://www.w3.org/1999/xlink" x="0px" y="0px"
	 viewBox="0 0 60 60" style="enable-background:new 0 0 60 60;" xml:space="preserve">
<style type="text/css">
	.st0{clip-path:url(#SVGID_00000098211675398263293880000014758382003592427443_);}
	.st1{enable-background:new    ;}
</style>
<g id="Group_49" transform="translate(0 0)">
	<path id="Path_113" d="M9.06,44.41l1.93,6.27H7.24L9.06,44.41z M7.37,41.88L2.54,56.23h2.89L6.4,53.1h5.19l0.72,3.14h2.9
		l-4.83-14.35H7.37z"/>
	<path id="Path_114" d="M21.57,49.63h-6.48v-1.58h6.48V49.63z"/>
	<g id="Group_98">
		<g>
			<defs>
				<rect id="SVGID_1_" x="2.54" y="2.53" width="55.19" height="53.7"/>
			</defs>
			<clipPath id="SVGID_00000087381177838404079660000012673139373982153403_">
				<use xlink:href="#SVGID_1_"  style="overflow:visible;"/>
			</clipPath>
			<g id="Group_97" style="clip-path:url(#SVGID_00000087381177838404079660000012673139373982153403_);">
				<path id="Path_115" d="M37.99,55.77c-0.67,0.01-1.34-0.08-1.98-0.28c-0.57-0.19-1.09-0.51-1.51-0.94
					c-0.4-0.41-0.72-0.89-0.95-1.42c-0.19-0.58-0.29-1.19-0.28-1.8v-4.91c-0.02-0.62,0.11-1.24,0.38-1.8
					c0.2-0.54,0.53-1.02,0.95-1.42c0.43-0.42,0.94-0.74,1.51-0.94c0.61-0.23,1.24-0.35,1.89-0.38c0.68-0.02,1.36,0.11,1.98,0.38
					c0.55,0.24,1.06,0.56,1.51,0.94c0.45,0.37,0.78,0.86,0.94,1.42c0.22,0.54,0.34,1.12,0.38,1.7v5.01c0.01,0.61-0.09,1.22-0.28,1.8
					c-0.2,0.54-0.52,1.02-0.94,1.42c-0.42,0.41-0.94,0.7-1.51,0.85C39.4,55.66,38.7,55.79,37.99,55.77 M37.98,53.22
					c0.59,0.03,1.17-0.17,1.61-0.57c0.38-0.37,0.58-0.89,0.57-1.42v-4.72c0.03-0.56-0.17-1.11-0.57-1.51
					c-0.43-0.41-1.01-0.62-1.61-0.57c-0.59-0.03-1.17,0.17-1.61,0.57c-0.39,0.4-0.6,0.95-0.57,1.51v4.72
					c-0.01,0.53,0.19,1.04,0.57,1.42C36.81,53.06,37.39,53.27,37.98,53.22"/>
				<path id="Path_116" d="M54.71,42.92h3.02L46.78,55.77h-3.02L54.71,42.92z M43.94,45.94c0-0.4,0.1-0.78,0.28-1.13
					c0.16-0.35,0.39-0.67,0.66-0.94c0.31-0.27,0.66-0.5,1.04-0.66c0.39-0.16,0.81-0.23,1.23-0.19c0.42,0.01,0.83,0.07,1.23,0.19
					c0.36,0.14,0.69,0.37,0.94,0.66c0.27,0.28,0.5,0.59,0.66,0.94c0.38,0.71,0.38,1.56,0,2.27c-0.33,0.71-0.9,1.28-1.61,1.61
					c-0.39,0.16-0.81,0.23-1.23,0.19c-0.42-0.01-0.83-0.07-1.23-0.19c-0.38-0.16-0.73-0.39-1.04-0.66c-0.27-0.28-0.5-0.59-0.66-0.94
					C44.04,46.73,43.95,46.34,43.94,45.94 M45.93,45.94c-0.01,0.27,0.13,0.53,0.38,0.66c0.21,0.18,0.48,0.28,0.76,0.28
					c0.28,0.01,0.55-0.09,0.76-0.28c0.19-0.17,0.33-0.41,0.38-0.66c0.01-0.28-0.14-0.53-0.38-0.66c-0.43-0.38-1.08-0.38-1.51,0
					C46.09,45.44,45.96,45.68,45.93,45.94 M51.31,52.65c-0.01-0.43,0.09-0.85,0.28-1.23c0.14-0.36,0.37-0.69,0.66-0.94
					c0.33-0.24,0.68-0.46,1.04-0.66c0.78-0.38,1.68-0.38,2.46,0c0.36,0.14,0.69,0.37,0.94,0.66c0.27,0.27,0.5,0.59,0.66,0.94
					c0.38,0.78,0.38,1.68,0,2.46c-0.16,0.38-0.39,0.73-0.66,1.04c-0.28,0.27-0.59,0.5-0.94,0.66c-0.77,0.38-1.68,0.38-2.46,0
					c-0.79-0.29-1.41-0.91-1.7-1.7C51.42,53.5,51.32,53.08,51.31,52.65 M53.39,52.65c0,0.32,0.14,0.63,0.38,0.85
					c0.22,0.24,0.53,0.37,0.85,0.38c0.3,0.02,0.59-0.13,0.76-0.38c0.24-0.22,0.37-0.53,0.38-0.85c0.02-0.3-0.13-0.59-0.38-0.76
					c-0.37-0.44-1.02-0.51-1.46-0.14c-0.05,0.04-0.1,0.09-0.14,0.14C53.52,52.06,53.38,52.35,53.39,52.65"/>
				<rect x="27.64" y="27.86" width="3" height="10.91"/>
				<rect x="32.96" y="2.53" width="3" height="6.92"/>
				<rect x="22.5" y="2.53" width="3" height="6.92"/>
				<path d="M28.95,29.36c-6.5,0-11.85-5.23-11.97-11.76V7.98h12.16v3h-9.16v6.59c0.09,4.92,4.15,8.84,9.13,8.78l0.05,3
					C29.1,29.36,29.03,29.36,28.95,29.36z"/>
				<path d="M29.33,29.36c-0.07,0-0.14,0-0.22,0l0.05-3c4.93,0.07,9.04-3.86,9.13-8.81v-6.57h-9.16v-3H41.3v9.59
					C41.18,24.13,35.83,29.36,29.33,29.36z"/>
			</g>
		</g>
		<g class="st1">
			<path d="M27.72,55.79V44.33h-1.69v-2.41h4.27v13.87H27.72z"/>
		</g>
	</g>
</g>
</svg>
